<svg width="180" height="180" viewBox="0 0 180 180" fill="none" xmlns="http://www.w3.org/2000/svg">
<circle cx="88" cy="52" r="20" fill="#EC7C26"/>
<path fill-rule="evenodd" clip-rule="evenodd" d="M131.902 39.2715C131.022 39.9415 125.219 47.4645 119.005 55.9895C102.536 78.5825 107.11 75.9895 83.727 75.9895H63.802L61.151 78.8855C59.693 80.4785 56.49 85.7665 54.033 90.6355C51.576 95.5055 47.189 103.864 44.283 109.21C41.377 114.557 39 119.169 39 119.46C39 119.751 43.387 119.98 48.75 119.968L58.5 119.948L61.952 112.902C63.851 109.027 65.764 105.635 66.202 105.364C66.641 105.093 67 108.273 67 112.43V119.989H88.578H110.156L109.869 108.002L109.582 96.0165L112.632 92.7525C114.31 90.9575 116.738 87.9145 118.027 85.9895C119.316 84.0645 125.913 75.0075 132.686 65.8625C146.232 47.5725 147.194 45.0925 142.545 40.4445C139.847 37.7455 134.654 37.1735 131.902 39.2715Z" fill="#EC7C26"/>
<path fill-rule="evenodd" clip-rule="evenodd" d="M25.5 125.733C21.65 129.436 15.012 135.673 10.75 139.592C6.487 143.511 3 147.224 3 147.842C3 148.665 26.295 148.966 90.083 148.966C148.946 148.966 177.056 148.635 176.826 147.944C176.639 147.382 169.739 140.65 161.493 132.984L146.5 119.046L89.5 119.023L32.5 119L25.5 125.733Z" fill="#C09A6B"/>
</svg>
