<svg width="392" height="60" viewBox="0 0 392 60" fill="none" xmlns="http://www.w3.org/2000/svg">
<g filter="url(#filter0_d_642_17)">
<path d="M7.92614 46H1.17614L13.4659 11.0909H21.2727L33.5795 46H26.8295L17.5057 18.25H17.233L7.92614 46ZM8.14773 32.3125H26.5568V37.392H8.14773V32.3125ZM58.1761 26.7386L52.5511 27.3523C52.392 26.7841 52.1136 26.25 51.7159 25.75C51.3295 25.25 50.8068 24.8466 50.1477 24.5398C49.4886 24.233 48.6818 24.0795 47.7273 24.0795C46.4432 24.0795 45.3636 24.358 44.4886 24.9148C43.625 25.4716 43.1989 26.1932 43.2102 27.0795C43.1989 27.8409 43.4773 28.4602 44.0455 28.9375C44.625 29.4148 45.5795 29.8068 46.9091 30.1136L51.375 31.0682C53.8523 31.6023 55.6932 32.4489 56.8977 33.608C58.1136 34.767 58.7273 36.2841 58.7386 38.1591C58.7273 39.8068 58.2443 41.2614 57.2898 42.5227C56.3466 43.7727 55.0341 44.75 53.3523 45.4545C51.6705 46.1591 49.7386 46.5114 47.5568 46.5114C44.3523 46.5114 41.7727 45.8409 39.8182 44.5C37.8636 43.1477 36.6989 41.267 36.3239 38.858L42.3409 38.2784C42.6136 39.4602 43.1932 40.3523 44.0795 40.9545C44.9659 41.5568 46.1193 41.858 47.5398 41.858C49.0057 41.858 50.1818 41.5568 51.0682 40.9545C51.9659 40.3523 52.4148 39.608 52.4148 38.7216C52.4148 37.9716 52.125 37.3523 51.5455 36.8636C50.9773 36.375 50.0909 36 48.8864 35.7386L44.4205 34.8011C41.9091 34.2784 40.0511 33.3977 38.8466 32.1591C37.642 30.9091 37.0455 29.3295 37.0568 27.4205C37.0455 25.8068 37.483 24.4091 38.3693 23.2273C39.267 22.0341 40.5114 21.1136 42.1023 20.4659C43.7045 19.8068 45.5511 19.4773 47.642 19.4773C50.7102 19.4773 53.125 20.1307 54.8864 21.4375C56.6591 22.7443 57.7557 24.5114 58.1761 26.7386ZM63.8267 46V19.8182H69.9972V46H63.8267ZM66.929 16.1023C65.9517 16.1023 65.1108 15.7784 64.4062 15.1307C63.7017 14.4716 63.3494 13.6818 63.3494 12.7614C63.3494 11.8295 63.7017 11.0398 64.4062 10.392C65.1108 9.73295 65.9517 9.40341 66.929 9.40341C67.9176 9.40341 68.7585 9.73295 69.4517 10.392C70.1563 11.0398 70.5085 11.8295 70.5085 12.7614C70.5085 13.6818 70.1563 14.4716 69.4517 15.1307C68.7585 15.7784 67.9176 16.1023 66.929 16.1023ZM97.0355 26.7386L91.4105 27.3523C91.2514 26.7841 90.973 26.25 90.5753 25.75C90.1889 25.25 89.6662 24.8466 89.0071 24.5398C88.348 24.233 87.5412 24.0795 86.5866 24.0795C85.3026 24.0795 84.223 24.358 83.348 24.9148C82.4844 25.4716 82.0582 26.1932 82.0696 27.0795C82.0582 27.8409 82.3366 28.4602 82.9048 28.9375C83.4844 29.4148 84.4389 29.8068 85.7685 30.1136L90.2344 31.0682C92.7116 31.6023 94.5526 32.4489 95.7571 33.608C96.973 34.767 97.5866 36.2841 97.598 38.1591C97.5866 39.8068 97.1037 41.2614 96.1491 42.5227C95.206 43.7727 93.8935 44.75 92.2116 45.4545C90.5298 46.1591 88.598 46.5114 86.4162 46.5114C83.2116 46.5114 80.6321 45.8409 78.6776 44.5C76.723 43.1477 75.5582 41.267 75.1832 38.858L81.2003 38.2784C81.473 39.4602 82.0526 40.3523 82.9389 40.9545C83.8253 41.5568 84.9787 41.858 86.3991 41.858C87.8651 41.858 89.0412 41.5568 89.9276 40.9545C90.8253 40.3523 91.2741 39.608 91.2741 38.7216C91.2741 37.9716 90.9844 37.3523 90.4048 36.8636C89.8366 36.375 88.9503 36 87.7457 35.7386L83.2798 34.8011C80.7685 34.2784 78.9105 33.3977 77.706 32.1591C76.5014 30.9091 75.9048 29.3295 75.9162 27.4205C75.9048 25.8068 76.3423 24.4091 77.2287 23.2273C78.1264 22.0341 79.3707 21.1136 80.9616 20.4659C82.5639 19.8068 84.4105 19.4773 86.5014 19.4773C89.5696 19.4773 91.9844 20.1307 93.7457 21.4375C95.5185 22.7443 96.6151 24.5114 97.0355 26.7386ZM115.76 19.8182V24.5909H100.709V19.8182H115.76ZM104.425 13.5455H110.595V38.125C110.595 38.9545 110.72 39.5909 110.97 40.0341C111.232 40.4659 111.572 40.7614 111.993 40.9205C112.413 41.0795 112.879 41.1591 113.391 41.1591C113.777 41.1591 114.129 41.1307 114.447 41.0739C114.777 41.017 115.027 40.9659 115.197 40.9205L116.237 45.7443C115.908 45.858 115.436 45.983 114.822 46.1193C114.22 46.2557 113.482 46.3352 112.607 46.358C111.061 46.4034 109.669 46.1705 108.43 45.6591C107.192 45.1364 106.209 44.3295 105.482 43.2386C104.766 42.1477 104.413 40.7841 104.425 39.1477V13.5455ZM132.23 46.5114C129.605 46.5114 127.338 45.9659 125.429 44.875C123.531 43.7727 122.071 42.2159 121.048 40.2045C120.026 38.1818 119.514 35.8011 119.514 33.0625C119.514 30.3693 120.026 28.0057 121.048 25.9716C122.082 23.9261 123.526 22.3352 125.378 21.1989C127.23 20.0511 129.406 19.4773 131.906 19.4773C133.52 19.4773 135.043 19.7386 136.474 20.2614C137.918 20.7727 139.19 21.5682 140.293 22.6477C141.406 23.7273 142.281 25.1023 142.918 26.7727C143.554 28.4318 143.872 30.4091 143.872 32.7045V34.5966H122.412V30.4375H137.957C137.946 29.2557 137.69 28.2045 137.19 27.2841C136.69 26.3523 135.991 25.6193 135.094 25.0852C134.207 24.5511 133.173 24.2841 131.991 24.2841C130.73 24.2841 129.622 24.5909 128.668 25.2045C127.713 25.8068 126.969 26.6023 126.435 27.5909C125.912 28.5682 125.645 29.642 125.634 30.8125V34.4432C125.634 35.9659 125.912 37.2727 126.469 38.3636C127.026 39.4432 127.804 40.2727 128.804 40.8523C129.804 41.4205 130.974 41.7045 132.315 41.7045C133.213 41.7045 134.026 41.5795 134.753 41.3295C135.48 41.0682 136.111 40.6875 136.645 40.1875C137.179 39.6875 137.582 39.0682 137.855 38.3295L143.616 38.9773C143.253 40.5 142.56 41.8295 141.537 42.9659C140.526 44.0909 139.23 44.9659 137.651 45.5909C136.071 46.2045 134.264 46.5114 132.23 46.5114ZM155.263 30.6591V46H149.092V19.8182H154.99V24.267H155.297C155.899 22.8011 156.859 21.6364 158.178 20.7727C159.507 19.9091 161.149 19.4773 163.104 19.4773C164.911 19.4773 166.484 19.8636 167.825 20.6364C169.178 21.4091 170.223 22.5284 170.962 23.9943C171.712 25.4602 172.081 27.2386 172.07 29.3295V46H165.899V30.2841C165.899 28.5341 165.445 27.1648 164.536 26.1761C163.638 25.1875 162.393 24.6932 160.803 24.6932C159.723 24.6932 158.763 24.9318 157.922 25.4091C157.092 25.875 156.439 26.5511 155.962 27.4375C155.496 28.3239 155.263 29.3977 155.263 30.6591ZM189.763 46.5114C187.149 46.5114 184.905 45.9375 183.03 44.7898C181.166 43.642 179.729 42.0568 178.717 40.0341C177.717 38 177.217 35.6591 177.217 33.0114C177.217 30.3523 177.729 28.0057 178.751 25.9716C179.774 23.9261 181.217 22.3352 183.081 21.1989C184.956 20.0511 187.172 19.4773 189.729 19.4773C191.854 19.4773 193.734 19.8693 195.371 20.6534C197.018 21.4261 198.331 22.5227 199.308 23.9432C200.286 25.3523 200.842 27 200.979 28.8864H195.081C194.842 27.625 194.274 26.5739 193.376 25.733C192.49 24.8807 191.303 24.4545 189.814 24.4545C188.553 24.4545 187.445 24.7955 186.49 25.4773C185.536 26.1477 184.791 27.1136 184.257 28.375C183.734 29.6364 183.473 31.1477 183.473 32.9091C183.473 34.6932 183.734 36.2273 184.257 37.5114C184.78 38.7841 185.513 39.767 186.456 40.4602C187.411 41.142 188.53 41.483 189.814 41.483C190.723 41.483 191.536 41.3125 192.251 40.9716C192.979 40.6193 193.587 40.1136 194.075 39.4545C194.564 38.7955 194.899 37.9943 195.081 37.0511H200.979C200.831 38.9034 200.286 40.5455 199.342 41.9773C198.399 43.3977 197.115 44.5114 195.49 45.3182C193.865 46.1136 191.956 46.5114 189.763 46.5114ZM206.045 46V19.8182H212.216V46H206.045ZM209.148 16.1023C208.17 16.1023 207.33 15.7784 206.625 15.1307C205.92 14.4716 205.568 13.6818 205.568 12.7614C205.568 11.8295 205.92 11.0398 206.625 10.392C207.33 9.73295 208.17 9.40341 209.148 9.40341C210.136 9.40341 210.977 9.73295 211.67 10.392C212.375 11.0398 212.727 11.8295 212.727 12.7614C212.727 13.6818 212.375 14.4716 211.67 15.1307C210.977 15.7784 210.136 16.1023 209.148 16.1023ZM226.095 46.5284C224.436 46.5284 222.942 46.233 221.612 45.642C220.294 45.0398 219.249 44.1534 218.476 42.983C217.714 41.8125 217.334 40.3693 217.334 38.6534C217.334 37.1761 217.607 35.9545 218.152 34.9886C218.697 34.0227 219.442 33.25 220.385 32.6705C221.328 32.0909 222.391 31.6534 223.572 31.358C224.766 31.0511 225.999 30.8295 227.271 30.6932C228.805 30.5341 230.05 30.392 231.004 30.267C231.959 30.1307 232.652 29.9261 233.084 29.6534C233.527 29.3693 233.749 28.9318 233.749 28.3409V28.2386C233.749 26.9545 233.368 25.9602 232.607 25.2557C231.845 24.5511 230.749 24.1989 229.317 24.1989C227.805 24.1989 226.607 24.5284 225.72 25.1875C224.845 25.8466 224.254 26.625 223.947 27.5227L218.186 26.7045C218.641 25.1136 219.391 23.7841 220.436 22.7159C221.482 21.6364 222.76 20.8295 224.271 20.2955C225.783 19.75 227.453 19.4773 229.283 19.4773C230.544 19.4773 231.8 19.625 233.05 19.9205C234.3 20.2159 235.442 20.7045 236.476 21.3864C237.51 22.0568 238.339 22.9716 238.964 24.1307C239.601 25.2898 239.919 26.7386 239.919 28.4773V46H233.987V42.4034H233.783C233.408 43.1307 232.879 43.8125 232.197 44.4489C231.527 45.0739 230.68 45.5795 229.658 45.9659C228.646 46.3409 227.459 46.5284 226.095 46.5284ZM227.697 41.9943C228.936 41.9943 230.01 41.75 230.919 41.2614C231.828 40.7614 232.527 40.1023 233.016 39.2841C233.516 38.4659 233.766 37.5739 233.766 36.608V33.5227C233.572 33.6818 233.243 33.8295 232.777 33.9659C232.322 34.1023 231.811 34.2216 231.243 34.3239C230.675 34.4261 230.112 34.517 229.555 34.5966C228.999 34.6761 228.516 34.7443 228.107 34.8011C227.186 34.9261 226.362 35.1307 225.635 35.4148C224.908 35.6989 224.334 36.0966 223.913 36.608C223.493 37.108 223.283 37.7557 223.283 38.5511C223.283 39.6875 223.697 40.5455 224.527 41.125C225.357 41.7045 226.413 41.9943 227.697 41.9943Z" fill="#EC7C26"/>
</g>
<g filter="url(#filter1_d_642_17)">
<path d="M258.273 46H246.443V11.0909H258.511C261.977 11.0909 264.955 11.7898 267.443 13.1875C269.943 14.5739 271.864 16.5682 273.205 19.1705C274.545 21.7727 275.216 24.8864 275.216 28.5114C275.216 32.1477 274.54 35.2727 273.188 37.8864C271.847 40.5 269.909 42.5057 267.375 43.9034C264.852 45.3011 261.818 46 258.273 46ZM252.767 40.5284H257.966C260.398 40.5284 262.426 40.0852 264.051 39.1989C265.676 38.3011 266.898 36.9659 267.716 35.1932C268.534 33.4091 268.943 31.1818 268.943 28.5114C268.943 25.8409 268.534 23.625 267.716 21.8636C266.898 20.0909 265.688 18.767 264.085 17.892C262.494 17.0057 260.517 16.5625 258.153 16.5625H252.767V40.5284ZM280.952 46V19.8182H287.122V46H280.952ZM284.054 16.1023C283.077 16.1023 282.236 15.7784 281.531 15.1307C280.827 14.4716 280.474 13.6818 280.474 12.7614C280.474 11.8295 280.827 11.0398 281.531 10.392C282.236 9.73295 283.077 9.40341 284.054 9.40341C285.043 9.40341 285.884 9.73295 286.577 10.392C287.281 11.0398 287.634 11.8295 287.634 12.7614C287.634 13.6818 287.281 14.4716 286.577 15.1307C285.884 15.7784 285.043 16.1023 284.054 16.1023ZM304.854 56.3636C302.638 56.3636 300.734 56.0625 299.143 55.4602C297.553 54.8693 296.274 54.0739 295.308 53.0739C294.342 52.0739 293.672 50.9659 293.297 49.75L298.854 48.4034C299.104 48.9148 299.467 49.4205 299.945 49.9205C300.422 50.4318 301.064 50.8523 301.871 51.1818C302.689 51.5227 303.717 51.6932 304.956 51.6932C306.706 51.6932 308.155 51.267 309.303 50.4148C310.45 49.5739 311.024 48.1875 311.024 46.2557V41.2955H310.717C310.399 41.9318 309.933 42.5852 309.32 43.2557C308.717 43.9261 307.916 44.4886 306.916 44.9432C305.928 45.3977 304.683 45.625 303.183 45.625C301.172 45.625 299.348 45.1534 297.712 44.2102C296.087 43.2557 294.791 41.8352 293.825 39.9489C292.871 38.0511 292.393 35.6761 292.393 32.8239C292.393 29.9489 292.871 27.5227 293.825 25.5455C294.791 23.5568 296.092 22.0511 297.729 21.0284C299.365 19.9943 301.189 19.4773 303.2 19.4773C304.734 19.4773 305.996 19.7386 306.984 20.2614C307.984 20.7727 308.78 21.392 309.371 22.1193C309.962 22.8352 310.411 23.5114 310.717 24.1477H311.058V19.8182H317.143V46.4261C317.143 48.6648 316.609 50.517 315.541 51.983C314.473 53.4489 313.013 54.5455 311.161 55.2727C309.308 56 307.206 56.3636 304.854 56.3636ZM304.905 40.7841C306.212 40.7841 307.325 40.4659 308.246 39.8295C309.166 39.1932 309.865 38.2784 310.342 37.0852C310.82 35.892 311.058 34.4602 311.058 32.7898C311.058 31.142 310.82 29.6989 310.342 28.4602C309.876 27.2216 309.183 26.2614 308.263 25.5795C307.354 24.8864 306.234 24.5398 304.905 24.5398C303.53 24.5398 302.382 24.8977 301.462 25.6136C300.541 26.3295 299.848 27.3125 299.382 28.5625C298.916 29.8011 298.683 31.2102 298.683 32.7898C298.683 34.392 298.916 35.7955 299.382 37C299.859 38.1932 300.558 39.125 301.479 39.7955C302.411 40.4545 303.553 40.7841 304.905 40.7841ZM323.467 46V19.8182H329.638V46H323.467ZM326.57 16.1023C325.592 16.1023 324.751 15.7784 324.047 15.1307C323.342 14.4716 322.99 13.6818 322.99 12.7614C322.99 11.8295 323.342 11.0398 324.047 10.392C324.751 9.73295 325.592 9.40341 326.57 9.40341C327.558 9.40341 328.399 9.73295 329.092 10.392C329.797 11.0398 330.149 11.8295 330.149 12.7614C330.149 13.6818 329.797 14.4716 329.092 15.1307C328.399 15.7784 327.558 16.1023 326.57 16.1023ZM349.057 19.8182V24.5909H334.006V19.8182H349.057ZM337.722 13.5455H343.892V38.125C343.892 38.9545 344.017 39.5909 344.267 40.0341C344.528 40.4659 344.869 40.7614 345.29 40.9205C345.71 41.0795 346.176 41.1591 346.688 41.1591C347.074 41.1591 347.426 41.1307 347.744 41.0739C348.074 41.017 348.324 40.9659 348.494 40.9205L349.534 45.7443C349.205 45.858 348.733 45.983 348.119 46.1193C347.517 46.2557 346.778 46.3352 345.903 46.358C344.358 46.4034 342.966 46.1705 341.727 45.6591C340.489 45.1364 339.506 44.3295 338.778 43.2386C338.063 42.1477 337.71 40.7841 337.722 39.1477V13.5455ZM361.751 46.5284C360.092 46.5284 358.598 46.233 357.268 45.642C355.95 45.0398 354.905 44.1534 354.132 42.983C353.371 41.8125 352.99 40.3693 352.99 38.6534C352.99 37.1761 353.263 35.9545 353.808 34.9886C354.354 34.0227 355.098 33.25 356.041 32.6705C356.984 32.0909 358.047 31.6534 359.229 31.358C360.422 31.0511 361.655 30.8295 362.928 30.6932C364.462 30.5341 365.706 30.392 366.661 30.267C367.615 30.1307 368.308 29.9261 368.74 29.6534C369.183 29.3693 369.405 28.9318 369.405 28.3409V28.2386C369.405 26.9545 369.024 25.9602 368.263 25.2557C367.501 24.5511 366.405 24.1989 364.973 24.1989C363.462 24.1989 362.263 24.5284 361.376 25.1875C360.501 25.8466 359.911 26.625 359.604 27.5227L353.842 26.7045C354.297 25.1136 355.047 23.7841 356.092 22.7159C357.138 21.6364 358.416 20.8295 359.928 20.2955C361.439 19.75 363.109 19.4773 364.939 19.4773C366.2 19.4773 367.456 19.625 368.706 19.9205C369.956 20.2159 371.098 20.7045 372.132 21.3864C373.166 22.0568 373.996 22.9716 374.621 24.1307C375.257 25.2898 375.575 26.7386 375.575 28.4773V46H369.643V42.4034H369.439C369.064 43.1307 368.536 43.8125 367.854 44.4489C367.183 45.0739 366.337 45.5795 365.314 45.9659C364.303 46.3409 363.115 46.5284 361.751 46.5284ZM363.354 41.9943C364.592 41.9943 365.666 41.75 366.575 41.2614C367.484 40.7614 368.183 40.1023 368.672 39.2841C369.172 38.4659 369.422 37.5739 369.422 36.608V33.5227C369.229 33.6818 368.899 33.8295 368.433 33.9659C367.979 34.1023 367.467 34.2216 366.899 34.3239C366.331 34.4261 365.768 34.517 365.212 34.5966C364.655 34.6761 364.172 34.7443 363.763 34.8011C362.842 34.9261 362.018 35.1307 361.291 35.4148C360.564 35.6989 359.99 36.0966 359.57 36.608C359.149 37.108 358.939 37.7557 358.939 38.5511C358.939 39.6875 359.354 40.5455 360.183 41.125C361.013 41.7045 362.07 41.9943 363.354 41.9943ZM387.95 11.0909V46H381.78V11.0909H387.95Z" fill="#FF0000"/>
</g>
<defs>
<filter id="filter0_d_642_17" x="0.176147" y="8.40338" width="242.743" height="41.125" filterUnits="userSpaceOnUse" color-interpolation-filters="sRGB">
<feFlood flood-opacity="0" result="BackgroundImageFix"/>
<feColorMatrix in="SourceAlpha" type="matrix" values="0 0 0 0 0 0 0 0 0 0 0 0 0 0 0 0 0 0 127 0" result="hardAlpha"/>
<feOffset dx="1" dy="1"/>
<feGaussianBlur stdDeviation="1"/>
<feComposite in2="hardAlpha" operator="out"/>
<feColorMatrix type="matrix" values="0 0 0 0 0 0 0 0 0 0 0 0 0 0 0 0 0 0 0.25 0"/>
<feBlend mode="normal" in2="BackgroundImageFix" result="effect1_dropShadow_642_17"/>
<feBlend mode="normal" in="SourceGraphic" in2="effect1_dropShadow_642_17" result="shape"/>
</filter>
<filter id="filter1_d_642_17" x="245.443" y="8.40338" width="145.507" height="50.9603" filterUnits="userSpaceOnUse" color-interpolation-filters="sRGB">
<feFlood flood-opacity="0" result="BackgroundImageFix"/>
<feColorMatrix in="SourceAlpha" type="matrix" values="0 0 0 0 0 0 0 0 0 0 0 0 0 0 0 0 0 0 127 0" result="hardAlpha"/>
<feOffset dx="1" dy="1"/>
<feGaussianBlur stdDeviation="1"/>
<feComposite in2="hardAlpha" operator="out"/>
<feColorMatrix type="matrix" values="0 0 0 0 0 0 0 0 0 0 0 0 0 0 0 0 0 0 0.25 0"/>
<feBlend mode="normal" in2="BackgroundImageFix" result="effect1_dropShadow_642_17"/>
<feBlend mode="normal" in="SourceGraphic" in2="effect1_dropShadow_642_17" result="shape"/>
</filter>
</defs>
</svg>
